<?xml version="1.0" encoding="utf-8"?><svg viewBox="0 0 512 512" xmlns="http://www.w3.org/2000/svg" xmlns:xlink="http://www.w3.org/1999/xlink"><style>:root>svg{display:none}:root>svg:target{display:block}</style><svg fill="none" viewBox="0 0 40 40" id="Group44" xmlns="http://www.w3.org/2000/svg"><path d="M20 27.059a1.18 1.18 0 01-1.177-1.177c0-4.529-3.706-8.235-8.235-8.235a1.18 1.18 0 01-1.176-1.176c0-.647.529-1.177 1.176-1.177a10.582 10.582 0 0110.588 10.588A1.18 1.18 0 0120 27.06z" fill="url(#apaint0_linear)"/><path d="M30.588 16.47a1.18 1.18 0 01-1.176 1.177 8.21 8.21 0 00-6.765 3.559 12.037 12.037 0 00-1.176-2.294 10.49 10.49 0 017.94-3.618c.648 0 1.177.53 1.177 1.177z" fill="url(#apaint1_linear)"/><path d="M20 40C8.97 40 0 31.03 0 20S8.97 0 20 0s20 8.97 20 20-8.97 20-20 20zm0-37.647C10.265 2.353 2.353 10.265 2.353 20S10.265 37.647 20 37.647 37.647 29.735 37.647 20 29.735 2.353 20 2.353z" fill="url(#apaint2_linear)"/><defs><linearGradient id="apaint0_linear" x1="15.294" y1="15.294" x2="15.294" y2="27.059" gradientUnits="userSpaceOnUse"><stop stop-color="#BC9CFF"/><stop offset="1" stop-color="#8BA4F9"/></linearGradient><linearGradient id="apaint1_linear" x1="26.029" y1="15.294" x2="26.029" y2="21.206" gradientUnits="userSpaceOnUse"><stop stop-color="#6FCF97"/><stop offset="1" stop-color="#66D2EA"/></linearGradient><linearGradient id="apaint2_linear" x1="20" y1="0" x2="20" y2="40" gradientUnits="userSpaceOnUse"><stop stop-color="#BC9CFF"/><stop offset="1" stop-color="#8BA4F9"/></linearGradient></defs></svg><svg fill="none" viewBox="0 0 54 14" id="Toxin" xmlns="http://www.w3.org/2000/svg"><path d="M10.335.368c.222 0 .402.076.542.228.152.14.228.32.228.542a.74.74 0 01-.228.543.705.705 0 01-.542.227H6.572v10.5a.76.76 0 01-.227.56c-.14.14-.32.21-.542.21-.21 0-.391-.07-.543-.21a.76.76 0 01-.228-.56v-10.5H1.27a.74.74 0 01-.542-.227.74.74 0 01-.228-.543C.5.917.576.736.728.596A.74.74 0 011.27.368h9.065zM16.908.368c.886 0 1.72.17 2.502.508.793.338 1.482.799 2.065 1.382a6.343 6.343 0 011.4 2.065c.338.782.508 1.616.508 2.503a6.259 6.259 0 01-.665 2.87 6.498 6.498 0 01-1.803 2.205l-.035.035c-.56.42-1.172.752-1.837.997a6.401 6.401 0 01-2.135.35 6.23 6.23 0 01-2.503-.507 6.751 6.751 0 01-2.065-1.383 6.537 6.537 0 01-1.382-2.047 6.276 6.276 0 01-.508-2.52c0-.98.198-1.884.595-2.713.397-.84.94-1.557 1.628-2.152l.07-.07c.011 0 .029-.012.052-.035A6.334 6.334 0 0114.685.77c.7-.268 1.44-.403 2.223-.403zm0 11.375c.443 0 .863-.052 1.26-.157a5.575 5.575 0 001.155-.473L13.18 3.641a4.915 4.915 0 00-.875 1.47 4.664 4.664 0 00-.315 1.715c0 .677.128 1.312.385 1.907a5.17 5.17 0 001.05 1.575c.455.444.98.794 1.575 1.05.595.257 1.23.385 1.908.385zm3.622-1.592c.408-.443.723-.945.945-1.505.233-.572.35-1.178.35-1.82a4.814 4.814 0 00-1.453-3.465 4.813 4.813 0 00-3.464-1.453c-.467 0-.916.065-1.348.193a4.46 4.46 0 00-1.207.525l6.177 7.525zM30.351 7.63a.763.763 0 01-.595-.28l-4.497-5.774a.714.714 0 01-.158-.543.722.722 0 01.28-.507.658.658 0 01.543-.14c.21.023.379.117.507.28l3.92 5.005L34.184.753a.709.709 0 01.49-.28.74.74 0 01.56.158.721.721 0 01.28.507.713.713 0 01-.158.543l-4.41 5.67a.73.73 0 01-.595.28zm4.918 5.636a1.566 1.566 0 01-.56-.105 3.847 3.847 0 01-.42-.228 2.376 2.376 0 01-.42-.42L30.35 7.981l-3.832 4.935a.721.721 0 01-.508.28.713.713 0 01-.543-.158.709.709 0 01-.28-.49.741.741 0 01.158-.56l4.41-5.67a.682.682 0 01.578-.28c.256 0 .46.094.612.28l4.095 5.25c.058.082.11.135.158.158l.105.052c.198 0 .361.07.49.21.14.129.215.292.227.49a.657.657 0 01-.175.543.744.744 0 01-.525.245h-.052zM39.734 13.266a.761.761 0 01-.56-.228.76.76 0 01-.227-.56V1.103c0-.21.076-.39.227-.542a.761.761 0 01.56-.228c.21 0 .391.076.543.228a.74.74 0 01.227.542v11.375a.76.76 0 01-.227.56.74.74 0 01-.543.228zM52.938 13.23a.685.685 0 01-.595-.297l-7.298-9.59v9.135a.74.74 0 01-.227.543.712.712 0 01-.525.21.75.75 0 01-.753-.753V1.121c0-.163.047-.31.14-.438a.696.696 0 01.385-.262.678.678 0 01.455-.018.79.79 0 01.385.263l7.28 9.607V1.121c0-.198.07-.373.21-.525a.74.74 0 01.543-.228c.21 0 .385.076.525.228a.721.721 0 01.227.525v11.357c0 .164-.046.31-.14.438a.799.799 0 01-.367.28 1.469 1.469 0 01-.245.035z" fill="#1F2041"/></svg><svg aria-hidden="true" data-prefix="fas" data-icon="bars" class="csvg-inline--fa cfa-bars cfa-w-14" viewBox="0 0 448 512" id="bars-solid" xmlns="http://www.w3.org/2000/svg"><path fill="currentColor" d="M16 132h416c8.837 0 16-7.163 16-16V76c0-8.837-7.163-16-16-16H16C7.163 60 0 67.163 0 76v40c0 8.837 7.163 16 16 16zm0 160h416c8.837 0 16-7.163 16-16v-40c0-8.837-7.163-16-16-16H16c-8.837 0-16 7.163-16 16v40c0 8.837 7.163 16 16 16zm0 160h416c8.837 0 16-7.163 16-16v-40c0-8.837-7.163-16-16-16H16c-8.837 0-16 7.163-16 16v40c0 8.837 7.163 16 16 16z"/></svg><svg aria-hidden="true" data-prefix="fas" data-icon="cash-register" class="dsvg-inline--fa dfa-cash-register dfa-w-16" viewBox="0 0 512 512" id="cash-register-solid" xmlns="http://www.w3.org/2000/svg"><path fill="currentColor" d="M511.1 378.8l-26.7-160c-2.6-15.4-15.9-26.7-31.6-26.7H208v-64h96c8.8 0 16-7.2 16-16V16c0-8.8-7.2-16-16-16H48c-8.8 0-16 7.2-16 16v96c0 8.8 7.2 16 16 16h96v64H59.1c-15.6 0-29 11.3-31.6 26.7L.8 378.7c-.6 3.5-.9 7-.9 10.5V480c0 17.7 14.3 32 32 32h448c17.7 0 32-14.3 32-32v-90.7c.1-3.5-.2-7-.8-10.5zM280 248c0-8.8 7.2-16 16-16h16c8.8 0 16 7.2 16 16v16c0 8.8-7.2 16-16 16h-16c-8.8 0-16-7.2-16-16v-16zm-32 64h16c8.8 0 16 7.2 16 16v16c0 8.8-7.2 16-16 16h-16c-8.8 0-16-7.2-16-16v-16c0-8.8 7.2-16 16-16zm-32-80c8.8 0 16 7.2 16 16v16c0 8.8-7.2 16-16 16h-16c-8.8 0-16-7.2-16-16v-16c0-8.8 7.2-16 16-16h16zM80 80V48h192v32H80zm40 200h-16c-8.8 0-16-7.2-16-16v-16c0-8.8 7.2-16 16-16h16c8.8 0 16 7.2 16 16v16c0 8.8-7.2 16-16 16zm16 64v-16c0-8.8 7.2-16 16-16h16c8.8 0 16 7.2 16 16v16c0 8.8-7.2 16-16 16h-16c-8.8 0-16-7.2-16-16zm216 112c0 4.4-3.6 8-8 8H168c-4.4 0-8-3.6-8-8v-16c0-4.4 3.6-8 8-8h176c4.4 0 8 3.6 8 8v16zm24-112c0 8.8-7.2 16-16 16h-16c-8.8 0-16-7.2-16-16v-16c0-8.8 7.2-16 16-16h16c8.8 0 16 7.2 16 16v16zm48-80c0 8.8-7.2 16-16 16h-16c-8.8 0-16-7.2-16-16v-16c0-8.8 7.2-16 16-16h16c8.8 0 16 7.2 16 16v16z"/></svg><svg aria-hidden="true" data-prefix="fas" data-icon="chevron-down" class="esvg-inline--fa efa-chevron-down efa-w-14" viewBox="0 0 448 512" id="chevron-down-solid" xmlns="http://www.w3.org/2000/svg"><path fill="currentColor" d="M207.029 381.476L12.686 187.132c-9.373-9.373-9.373-24.569 0-33.941l22.667-22.667c9.357-9.357 24.522-9.375 33.901-.04L224 284.505l154.745-154.021c9.379-9.335 24.544-9.317 33.901.04l22.667 22.667c9.373 9.373 9.373 24.569 0 33.941L240.971 381.476c-9.373 9.372-24.569 9.372-33.942 0z"/></svg><svg aria-hidden="true" data-prefix="fas" data-icon="sign-in-alt" class="fsvg-inline--fa ffa-sign-in-alt ffa-w-16" viewBox="0 0 512 512" id="sign-in-alt-solid" xmlns="http://www.w3.org/2000/svg"><path fill="currentColor" d="M416 448h-84c-6.6 0-12-5.4-12-12v-40c0-6.6 5.4-12 12-12h84c17.7 0 32-14.3 32-32V160c0-17.7-14.3-32-32-32h-84c-6.6 0-12-5.4-12-12V76c0-6.6 5.4-12 12-12h84c53 0 96 43 96 96v192c0 53-43 96-96 96zm-47-201L201 79c-15-15-41-4.5-41 17v96H24c-13.3 0-24 10.7-24 24v96c0 13.3 10.7 24 24 24h136v96c0 21.5 26 32 41 17l168-168c9.3-9.4 9.3-24.6 0-34z"/></svg></svg>